<?xml version="1.0" encoding="UTF-8"?>
<svg xmlns="http://www.w3.org/2000/svg" onmouseup="{ if(window.parent.document.onmouseup) window.parent.document.onmouseup(arguments[0]);}" xml:space="preserve" style="enable-background:new 0 0 360 360;" viewBox="0 0 360 360" y="0px" x="0px" id="Layer_1" version="1.1" xmlns:xlink="http://www.w3.org/1999/xlink">
<style type="text/css">
	.st0{fill:#F2C390;}
	.st1{fill:#231F20;}
	.st2{fill:#254878;}
	.st3{fill:#20A8C1;}
	.st4{fill:#F2C390;stroke:#231F20;stroke-width:6;stroke-miterlimit:10;}
	.st5{fill:#725C44;stroke:#231F20;stroke-width:5;stroke-miterlimit:10;}
	.st6{fill:#231F20;stroke:#231F20;stroke-miterlimit:10;}
	.st7{fill:#FFFFFF;}
	.st8{opacity:6.000000e-02;fill:#231F20;enable-background:new    ;}
	.st9{opacity:7.000000e-02;fill:#231F20;enable-background:new    ;}
	.st10{opacity:0.19;fill:#231F20;enable-background:new    ;}
</style>
<g>
	<g>
		<path class="st0" d="M56.7,337.4c-12.1,0-22.1-7.9-22.1-17.6v-54.1c0-9.7,9.9-17.6,22.1-17.6h9.6c1.3,0,2.5,0.1,3.8,0.3    c10.6,1.5,18.3,8.7,18.3,17.3v54.1c0,9.7-9.9,17.6-22.1,17.6H56.7v-2.5V337.4z"/>
		<path class="st1" d="M56.7,250.6C56.7,250.6,56.7,250.6,56.7,250.6C56.7,250.6,56.7,250.6,56.7,250.6l9.6,0c1.2,0,2.3,0.1,3.4,0.2    c9.3,1.3,16.1,7.5,16.1,14.8v54.1c0,8.3-8.8,15.1-19.6,15.1h-9.6c0,0,0,0,0,0c-10.8,0-19.6-6.7-19.6-15.1c0,0,0,0,0,0v-54.1    C37.1,257.3,45.9,250.6,56.7,250.6 M56.7,245.6c-13.5,0-24.6,9-24.6,20.1v54.1v0l0,0c0,11,11.1,20,24.6,20h0l0,0h9.5    c13.6,0,24.6-9,24.6-20.1v-54.1c0-9.8-8.6-18.2-20.4-19.8c-1.3-0.2-2.7-0.3-4.1-0.3L56.7,245.6L56.7,245.6L56.7,245.6z"/>
	</g>
	<g>
		<path class="st0" d="M229.2,337.7c-1.4,0-2.8-0.1-4.1-0.3h-9.9c-12.2,0-22.1-7.9-22.1-17.6v-54.1c0-9.7,9.9-17.6,22.1-17.6h10.3    c12.2,0,22.1,7.9,22.1,17.6v24.4l48.2-30.1c3.5-2.2,7.8-3.4,12.3-3.4c5.9,0,11.5,2.1,15.3,5.7c3.4,3.2,5,7.3,4.6,11.6    c-0.4,4.4-3.2,8.5-7.6,11.3l-78.8,49.3C238,336.5,233.7,337.7,229.2,337.7L229.2,337.7z"/>
		<path class="st1" d="M225.4,250.6c10.8,0,19.6,6.8,19.6,15.1v28.9l52-32.5c3.2-2,7.1-3,11-3c5.1,0,10.1,1.7,13.5,5    c6.1,5.8,4.9,14.2-2.6,18.9l-78.8,49.3c-3.2,2-7.1,3-10.9,3c-1.3,0-2.6-0.1-3.9-0.3h-10.1c-10.8,0-19.6-6.8-19.6-15.1v-54.1    c0-8.3,8.8-15.1,19.6-15.1H225.4 M225.4,245.6h-10.3c-13.6,0-24.6,9-24.6,20.1v54.1c0,11.1,11,20.1,24.6,20.1h9.7    c1.4,0.2,2.9,0.3,4.3,0.3c5,0,9.7-1.3,13.6-3.8l78.8-49.3c5-3.1,8.2-7.9,8.7-13.1c0.5-5-1.4-9.9-5.4-13.6c-4.2-4-10.4-6.3-17-6.3    c-5,0-9.7,1.3-13.6,3.8L250,285.6v-19.9C250,254.6,239,245.6,225.4,245.6L225.4,245.6z"/>
	</g>
	<g>
		<path class="st2" d="M66.3,337.4v-59.8H37.4c-1.6,0-2.8-1.2-2.8-2.7v-53.1c0-11.9,12.2-21.6,27.2-21.6h51.8c0.4,0,0.9,0.1,1.2,0.3    c2.1-0.2,4.3-0.3,6.4-0.3h46.2c2.5,0,4.9,0.1,7.3,0.4c0.4-0.2,0.9-0.4,1.4-0.4H228c15,0,27.2,9.7,27.2,21.6v53.1    c-0.1,1.6-1.3,2.7-2.8,2.7h-29.9v59.8H66.3z"/>
		<path class="st1" d="M167.6,202.7c2.9,0,5.7,0.2,8.4,0.5V203c0-0.1,0.1-0.2,0.3-0.2H228c13.7,0,24.7,8.5,24.7,19.1v53.1    c0,0.1-0.1,0.2-0.3,0.2H220v59.8H68.8v-59.8H37.4c-0.2,0-0.3-0.1-0.3-0.2v-53.1c0-10.5,11.1-19.1,24.7-19.1h51.8    c0.2,0,0.3,0.1,0.3,0.2v0.2c2.4-0.3,4.9-0.4,7.3-0.4L167.6,202.7C167.5,202.7,167.6,202.7,167.6,202.7 M167.6,197.7L167.6,197.7    l-46.3,0c-2,0-4,0.1-6,0.2c-0.5-0.2-1-0.2-1.6-0.2H61.8c-16.4,0-29.7,10.8-29.7,24.1v53.1c0,2.9,2.3,5.2,5.2,5.2l0.1,0h0.1h26.4    v54.8v5h5H220h5v-5v-54.8h27.4c0,0,0,0,0,0c2.9,0,5.2-2.2,5.3-5l0-0.1v-0.1v-53.1c0-13.3-13.3-24.1-29.7-24.1h-51.7    c-0.6,0-1.3,0.1-1.8,0.3C172.1,197.8,169.9,197.7,167.6,197.7L167.6,197.7z"/>
	</g>
	<rect x="215.7" y="233.6" class="st3" width="3.4" height="41.5"/>
	<rect x="66.3" y="233.6" class="st3" width="3.4" height="41.5"/>
	<g>
		<path class="st4" d="M83.9,54v38.4c-0.6-0.2-1.4-0.4-2.1-0.4c-5.5,0-10,7.5-10,16.6s4.5,16.6,10,16.6c0.7,0,1.4-0.1,2.1-0.4v15    c0,0,0,0,0,0.1c0,27.6,29.1,50,64.9,50h18.3c14,0,25.3-8.7,25.3-19.5V54H83.9z"/>
		<path class="st5" d="M108.1,24.8c-13.8,0-24.6,8.2-24.6,18.4v24.7h0.3V104h8.7V67.9h86.5c0,0,0,0,0,0c22.1,0,40.1-13.8,40.1-30.9    l0.6-12.2L108.1,24.8z"/>
		<path class="st6" d="M157.3,115.9L157.3,115.9c-3.1,0-5.6-1.9-5.6-4.3V96.4c0-2.4,2.5-4.3,5.6-4.3h0c3.1,0,5.6,1.9,5.6,4.3v15.2    C162.9,114,160.4,115.9,157.3,115.9z"/>
		<path class="st6" d="M135.7,115.9L135.7,115.9c-3.1,0-5.6-1.9-5.6-4.3V96.4c0-2.4,2.5-4.3,5.6-4.3h0c3.1,0,5.6,1.9,5.6,4.3v15.2    C141.3,114,138.8,115.9,135.7,115.9z"/>
		<path class="st7" d="M137.8,153.1c-1,1.1-8.9-0.7-14.9-4.5c-8.9-5.5-12.6-14.5-11-15.4c1.1-0.6,5.4,2.8,14.2,9.5    C134.5,149,138.6,152.1,137.8,153.1z"/>
		<path class="st8" d="M153.1,24.8V190H147c-35.8,0-64.9-22.3-64.9-50c0,0,0,0,0,0v-15c-0.7,0.2-1.4,0.4-2.1,0.4    c-5.5,0-10-7.5-10-16.6s4.5-16.6,10-16.6c0.7,0,1.4,0.1,2.1,0.4V43.2c0-10.2,10.7-18.4,24.6-18.4H153.1z"/>
	</g>
	<path class="st9" d="M118.8,202.7h32.4v132.1H56.8c-10.8,0-19.6-6.7-19.6-15.1c0,0,0,0,0,0v-44.7h-2.3c-0.2,0-0.3-0.1-0.3-0.2   v-53.1c0-10.5,11.1-19.1,24.7-19.1h51.8c0.2,0,0.3,0.1,0.3,0.2v0.2C113.8,202.9,116.3,202.7,118.8,202.7z"/>
	<rect x="215.8" y="275.1" class="st10" width="9.7" height="59.8"/>
	<g>
		<path class="st0" d="M106.9,201.5l7.2-0.8c2.6-0.3,5.1-0.4,7.7-0.4H168c2.9,0,5.9,0.2,8.8,0.6l6,0.8l-37.9,29.2L106.9,201.5z"/>
		<path class="st1" d="M168,202.7c2.8,0,5.7,0.2,8.5,0.5l-22.3,17.2l-9.3,7.1l-30.5-23.5l-1.1-0.9l1.1-0.1c2.4-0.3,4.9-0.4,7.4-0.4    H168 M168,197.7L168,197.7L168,197.7h-46.2c-2.6,0-5.3,0.1-7.9,0.4l-1.2,0.1l-12.2,1.4l9.7,7.5l1.1,0.9l30.5,23.5l3.1,2.4l3.1-2.4    l9.3-7.1l22.3-17.2l9.6-7.4l-12-1.5C174.1,197.9,171.1,197.7,168,197.7L168,197.7z"/>
	</g>
</g>
</svg>