<?xml version="1.0" encoding="UTF-8"?>
<svg xmlns="http://www.w3.org/2000/svg" onmouseup="{ if(window.parent.document.onmouseup) window.parent.document.onmouseup(arguments[0]);}" xml:space="preserve" style="enable-background:new 0 0 360 360;" viewBox="0 0 360 360" y="0px" x="0px" id="Layer_1" version="1.1" xmlns:xlink="http://www.w3.org/1999/xlink">
<style type="text/css">
	.st0{opacity:7.000000e-02;fill:#010101;enable-background:new    ;}
	.st1{fill:#F2C390;stroke:#000000;stroke-width:5;stroke-miterlimit:10;}
	.st2{fill:#8CD4E2;stroke:#000000;stroke-width:5;stroke-miterlimit:10;}
	.st3{fill:#20A8C1;}
	.st4{opacity:0.19;fill:#010101;enable-background:new    ;}
	.st5{fill:#C3996C;stroke:#000000;stroke-width:5;stroke-miterlimit:10;}
	.st6{fill:#F2C390;}
	.st7{fill:#010101;}
	.st8{fill:#C3996C;stroke:#000000;stroke-width:2;stroke-miterlimit:10;}
	.st9{fill:#FFFFFF;}
	.st10{fill:#C3996C;stroke:#000000;stroke-width:5;stroke-linecap:round;stroke-miterlimit:10;}
	.st11{fill:#F5EB17;}
</style>
<g>
	<path class="st0" d="M205.6,209.8v-0.2c0-0.1,0.1-0.2,0.3-0.2h51.9c13.7,0,24.8,8.9,24.8,19.8v55.2c0,0.1-0.1,0.2-0.3,0.2H280v46.5   c0,8.7-8.8,15.7-19.6,15.7h-94.6V209.4h32.4C200.7,209.4,203.2,209.5,205.6,209.8z"/>
	<path class="st1" d="M247.3,259.4c1.1-0.2,2.3-0.3,3.4-0.3h9.6c10.8,0,19.6,7,19.6,15.7v56.3c0,8.7-8.8,15.7-19.6,15.7h-9.6   c-10.8,0-19.6-7-19.6-15.7v-56.3C231.2,267.2,238.1,260.7,247.3,259.4z"/>
	<path class="st1" d="M121.3,331.2v-56.3c0-8.7-8.8-15.7-19.6-15.7H91.4c-10.8,0-19.6,7-19.6,15.7v56.3c0,8.7,8.8,15.7,19.6,15.7   h10.3C112.5,346.9,121.3,339.8,121.3,331.2z"/>
	<path class="st2" d="M91.3,209.4h51.8c0.2,0,0.3,0.1,0.3,0.2v0.3c2.8-0.4,5.6-0.5,8.5-0.5h46.3c2.5,0,5,0.1,7.4,0.4v-0.2   c0-0.1,0.1-0.2,0.3-0.2h51.9c13.7,0,24.8,8.9,24.8,19.8v55.2c0,0.1-0.1,0.2-0.3,0.2h-31.5v62.2H99.4v-62.2H66.9   c-0.2,0-0.3-0.1-0.3-0.2v-55.2C66.6,218.3,77.7,209.4,91.3,209.4z"/>
	<rect x="98.7" y="239.5" class="st3" width="3.5" height="43.2"/>
	<rect x="248.3" y="240.5" class="st3" width="3.5" height="42.4"/>
	<rect x="91.4" y="284.7" class="st4" width="9.7" height="62.2"/>
	<path class="st5" d="M113.6,134.3c0.2-7.6,0.8-34.8,0.4-54.9c-0.3-15.6-10.2-35.1,1.5-44.8c0.1-0.1,0.2-0.1,0.2-0.2   c12.3-10.1,28.1-17.3,45.9-20c2.3-0.4,4.6-0.6,6.9-0.8c3-0.3,6-0.4,9.1-0.4c26.7,0,50.7,9.9,66.7,25.6   c12.2,11.8,12.4,80.6,12.4,94.8c0,1.4,0.1,2.8,0.3,4.2l5.2,39.5c1.6,11.8-7.3,22.3-18.8,22.3c0,0-138.2-0.9-139.4-2   c-2-1.9-4-7.5-3-10c3.4-8.3,8.2-40.5,11.7-49.1C113.3,137,113.5,135.6,113.6,134.3z"/>
	<path class="st6" d="M114.2,56.9L114.2,56.9c0-16.7,16.9-30.2,37.8-30.2h33.1c20.9,0,37.8,13.5,37.8,30.2l0,0   c0,16.7-16.9,30.2-37.8,30.2H152C131.1,87.1,114.2,73.6,114.2,56.9z"/>
	<path class="st1" d="M222.9,53.3v40c0.7-0.3,1.4-0.4,2.1-0.4c5.5,0,10,7.8,10,17.3c0,9.6-4.5,17.3-10,17.3c-0.7,0-1.4-0.1-2.1-0.4   v15.7c0,28.7-29.1,52-65,52h-18.4c-14,0-25.3-9.1-25.3-20.3V53.3H222.9z"/>
	<g>
		<path class="st7" d="M167.8,101.1l12.5,6.3c2,1,3.8,1.4,4,0.9l0,0c0.3-0.5-1.1-1.7-3.1-2.7l-12.5-6.3c-2-1-3.8-1.4-4-0.9l0,0    C164.4,98.9,165.8,100.1,167.8,101.1z"/>
		<path d="M165.3,98.1c-0.3,0-0.5,0.1-0.6,0.2c-0.3,0.5,1.1,1.7,3.1,2.7l12.5,6.3c1.4,0.7,2.7,1.1,3.4,1.1c0.3,0,0.5-0.1,0.6-0.2    c0.3-0.5-1.1-1.7-3.1-2.7l-12.5-6.3C167.3,98.5,166,98.1,165.3,98.1L165.3,98.1z"/>
	</g>
	<g>
		<path class="st7" d="M151.3,98.4L151.3,98.4c-0.3-0.5-2.1-0.1-4,0.9l-12.5,6.3c-2,1-3.4,2.2-3.1,2.7l0,0c0.3,0.5,2.1,0.1,4-0.9    l12.5-6.3C150.2,100.1,151.6,98.9,151.3,98.4z"/>
		<path d="M150.7,98.1c-0.7,0-2,0.4-3.4,1.1l-12.5,6.3c-2,1-3.4,2.2-3.1,2.7c0.1,0.2,0.3,0.2,0.6,0.2c0.7,0,2-0.4,3.4-1.1l12.5-6.3    c2-1,3.4-2.2,3.1-2.7C151.3,98.2,151.1,98.1,150.7,98.1L150.7,98.1z"/>
	</g>
	<path class="st8" d="M189.2,85.8l-21.9-10.1c-1.3-0.6-3.1-0.3-3.8,0.8l-0.4,0.5c-0.8,1.1-0.3,2.5,1,3.1L186,90.2   c1.3,0.6,3.1,0.3,3.8-0.8l0.4-0.5C191,87.8,190.6,86.4,189.2,85.8z"/>
	<path class="st8" d="M149.8,74.4l-19.1,13.3c-1.2,0.8-1.3,2.2-0.3,3.2l0.5,0.5c1,0.9,2.8,1,4,0.2L154,78.2c1.2-0.8,1.3-2.2,0.3-3.2   l-0.5-0.5C152.8,73.6,151,73.5,149.8,74.4z"/>
	<path class="st9" d="M136.3,156.7L136.3,156.7c0-3.8,3.9-6.9,8.6-6.9h34.3c4.8,0,8.6,3.1,8.6,6.9l0,0c0,3.8-3.9,1.5-8.6,1.5H145   C140.2,158.2,136.3,160.5,136.3,156.7z"/>
	<path class="st10" d="M233.7,88.9c0,5.8-4.4,10.5-9.9,10.5h-5.1c-1,0-1.7-0.8-1.7-1.9V74.7c0-1-1-1.8-2-1.5   c-0.8,0.2-1.6,0.4-2.5,0.6c-3.4,0.8-7,1.2-10.7,1.2c-14.2,0-26.9-6-35-15.4l0-0.1c-0.6-0.7-1.6-0.7-2.2-0.2   c-7.9,6.4-18.3,10.3-29.7,10.3c-4.4,0-8.7-0.6-12.7-1.7c-0.8-0.2-1.6-0.5-2.4-0.7c-3.4-1.1-6.6-2.6-9.5-4.3   c-5.9-3.5-7.7-11.3-3.8-17c3.8-5.6,8.5-10.7,13.8-15.3c11.9-10.1,52.1-17.7,55.4-16.6c0.2,0.1,0.4,0.1,0.6,0.1c1,0,1.9-0.1,2.9-0.1   c26.4,0,50.1,10,66.1,25.7c0.4,0.4,0.5,0.9,0.5,1.4"/>
	<path class="st5" d="M243.2,38.9"/>
	<path class="st1" d="M150.9,211.4h46.3c2.5,0,5,0.1,7.4,0.4c0.4,0,0.7,0.1,1.1,0.1l-1.1,0.9l-30.5,24.5l-9.3-7.4l-22.3-17.9   C145.2,211.6,148,211.4,150.9,211.4z"/>
	<g>
		<g>
			<g>
				<polygon class="st11" points="274.2,94.8 282,70.8 285.1,73.7 291.2,58.8 294.3,61.7 298.9,50.4 301.9,53.2 313.8,30.9 328,44       314.9,67.8 309.7,63.1 301,79.5 293.7,72.7 287.9,82.9 283.7,79     "/>
				<path class="st7" d="M313.7,31.8l13.6,12.5l-12.6,22.8l-4.3-4l-0.9-0.8l-0.8,1.5l-7.9,14.9l-6.4-5.9l-0.8-0.8l-0.8,1.4l-5,8.7      l-3.4-3.2l-0.8-0.7l-0.8,1.4l-7.1,11.9l6.5-19.9l2.1,1.9l1,1l0.7-1.8l5.3-13.1l2.1,2l1,1l0.7-1.8l3.9-9.5l2,1.9l0.9,0.8l0.8-1.5      l11.1-20.8 M313.7,30.1l-11.8,22.1l-3-2.8l-4.6,11.3l-3.2-2.9l-6,14.9l-3.2-3l-9.5,28.9l11.2-18.7l4.2,3.9l5.8-10.2l7.3,6.7      l8.7-16.4l5.1,4.8l13.8-24.9L313.7,30.1L313.7,30.1z"/>
			</g>
		</g>
		<g>
			<g>
				<polygon class="st11" points="269.9,115.9 294.4,122.2 291.7,125.5 306.9,130.6 304.2,133.9 315.8,137.8 313.2,140.9       336.3,151.4 324.1,166.4 299.4,154.8 303.8,149.3 286.9,141.7 293.2,134 282.6,128.9 286.3,124.4     "/>
				<path class="st7" d="M335.3,151.4l-11.7,14.3l-23.5-11.1l3.7-4.5l0.8-0.9l-1.6-0.7l-15.4-7l5.5-6.7l0.7-0.9l-1.5-0.7l-9-4.4      l3-3.6l0.7-0.8l-1.4-0.8l-12.3-6.4l20.3,5.2l-1.8,2.2l-0.9,1.1l1.8,0.6l13.4,4.5l-1.8,2.2l-0.9,1.1l1.8,0.6l9.7,3.2l-1.8,2.2      l-0.7,0.9l1.5,0.7l21.5,9.8 M337,151.3l-22.8-10.4l2.6-3.2l-11.6-3.9l2.7-3.3l-15.2-5.1l2.8-3.4l-29.4-7.6l19.4,10l-3.6,4.5      l10.5,5.1l-6.3,7.7l16.9,7.7l-4.4,5.4l25.8,12.2L337,151.3L337,151.3z"/>
			</g>
		</g>
	</g>
	<g>
		<g>
			<g>
				<polygon class="st11" points="76.3,79 72.1,82.9 66.3,72.7 59,79.5 50.3,63.1 45.1,67.8 32,44 46.2,30.9 58.1,53.2 61.1,50.4       65.7,61.7 68.8,58.8 74.9,73.7 78,70.8 85.8,94.8     "/>
				<path class="st7" d="M46.1,31.7l11.1,20.8l0.8,1.5l0.9-0.8l2-1.9l3.9,9.5l0.7,1.8l1-1l2.1-2L74,72.7l0.7,1.8l1-1l2.1-1.9      l6.5,19.9l-7.1-11.9l-0.8-1.4L75.6,79l-3.4,3.2l-5-8.7L66.4,72l-0.8,0.8l-6.4,5.9l-7.9-14.9l-0.8-1.5l-0.9,0.8l-4.3,4L32.7,44.3      l13.6-12.5 M46.3,30.1L31.4,43.8l13.8,24.9l5.1-4.8l8.7,16.4l7.3-6.7l5.8,10.2l4.2-3.9l11.2,18.7l-9.5-28.9l-3.2,3l-6-14.9      l-3.2,2.9l-4.6-11.3l-3,2.8L46.3,30.1L46.3,30.1z"/>
			</g>
		</g>
		<g>
			<g>
				<polygon class="st11" points="73.7,124.4 77.4,128.9 66.8,134 73.1,141.7 56.2,149.3 60.6,154.8 35.9,166.4 23.7,151.4       46.8,140.9 44.2,137.8 55.8,133.9 53.1,130.6 68.3,125.5 65.6,122.2 90.1,115.9     "/>
				<path class="st7" d="M24.5,151.6l21.5-9.8l1.5-0.7l-0.7-0.9L45,138l9.7-3.2l1.8-0.6l-0.9-1.1l-1.8-2.2l13.4-4.5l1.8-0.6      l-0.9-1.1l-1.8-2.2l20.3-5.2l-12.3,6.4l-1.4,0.8l0.7,0.8l3,3.6l-9,4.4l-1.5,0.7l0.7,0.9l5.5,6.7l-15.4,7l-1.6,0.7l0.8,0.9      l3.7,4.5l-23.5,11.1l-11.7-14.3 M23,151.3L35.8,167l25.8-12.2l-4.4-5.4l16.9-7.7l-6.3-7.7l10.5-5.1l-3.6-4.5l19.4-10L64.6,122      l2.8,3.4l-15.2,5.1l2.7,3.3l-11.6,3.9l2.6,3.2L23,151.3L23,151.3z"/>
			</g>
		</g>
	</g>
</g>
</svg>