<?xml version="1.0" encoding="UTF-8"?>
<svg xmlns="http://www.w3.org/2000/svg" onmouseup="{ if(window.parent.document.onmouseup) window.parent.document.onmouseup(arguments[0]);}" xml:space="preserve" style="enable-background:new 0 0 360 360;" viewBox="0 0 360 360" y="0px" x="0px" id="Layer_1" version="1.1" xmlns:xlink="http://www.w3.org/1999/xlink">
<style type="text/css">
	.st0{opacity:7.000000e-02;fill:#010101;enable-background:new    ;}
	.st1{fill:#F2C390;stroke:#000000;stroke-width:5;stroke-miterlimit:10;}
	.st2{fill:#8CD4E2;stroke:#000000;stroke-width:5;stroke-miterlimit:10;}
	.st3{fill:#20A8C1;}
	.st4{opacity:0.19;fill:#010101;enable-background:new    ;}
	.st5{fill:#C3996C;stroke:#000000;stroke-width:5;stroke-miterlimit:10;}
	.st6{fill:#F2C390;}
	.st7{fill:#010101;}
	.st8{fill:#C3996C;stroke:#000000;stroke-width:2;stroke-miterlimit:10;}
	.st9{fill:#FFFFFF;}
	.st10{fill:#C3996C;stroke:#000000;stroke-width:5;stroke-linecap:round;stroke-miterlimit:10;}
	.st11{fill:#FFFFFF;stroke:#000000;stroke-width:5;stroke-miterlimit:10;}
</style>
<g>
	<path class="st0" d="M156.3,209.4h32.4V347H94.2c-10.8,0-19.6-7-19.6-15.7v-46.5h-2.3c-0.2,0-0.3-0.1-0.3-0.2v-55.2   c0-11,11.1-19.8,24.8-19.8h51.9c0.2,0,0.3,0.1,0.3,0.2v0.2C151.4,209.6,153.8,209.4,156.3,209.4z"/>
	<path class="st1" d="M123.4,275v56.3c0,8.7-8.8,15.7-19.6,15.7h-9.6c-10.8,0-19.6-7-19.6-15.7V275c0-8.7,8.8-15.7,19.6-15.7h9.6   c1.2,0,2.3,0.1,3.4,0.3C116.4,260.8,123.4,267.3,123.4,275z"/>
	<path class="st1" d="M252.9,347h10.3c10.8,0,19.6-7,19.6-15.7V275c0-8.7-8.8-15.7-19.6-15.7h-10.3c-10.8,0-19.6,7-19.6,15.7v56.3   C233.3,340,242.1,347,252.9,347z"/>
	<path class="st2" d="M288,229.4v55.2c0,0.1-0.1,0.2-0.3,0.2h-32.5V347H103.8v-8.1V332l-1-49H85.4L72,282.8v-53.5   c0-10.9,11.1-19.8,24.8-19.8h51.8c0.2,0,0.3,0.1,0.3,0.2v0.2c2.4-0.3,4.9-0.4,7.4-0.4h46.3c2.9,0,5.7,0.1,8.5,0.5v-0.3   c0-0.1,0.1-0.2,0.3-0.2h51.8C276.9,209.4,288,218.4,288,229.4z"/>
	<line class="st2" x1="103.8" y1="338.9" x2="103.8" y2="332"/>
	<rect x="252.5" y="239.6" class="st3" width="3.5" height="43.2"/>
	<rect x="101.1" y="238" class="st3" width="3.5" height="42.4"/>
	<rect x="253.5" y="284.8" class="st4" width="9.7" height="62.2"/>
	<g>
		<path class="st5" d="M241.8,138.3c3.5,8.6,8.3,40.9,11.7,49.1c1,2.5-1,8.1-3,10c-1.2,1.1-139.4,2-139.4,2    c-11.5,0-20.4-10.5-18.8-22.3l5.2-39.5c0.2-1.4,0.3-2.8,0.3-4.2c0-14.2,0.2-83,12.4-94.8c16-15.6,40-25.6,66.7-25.6    c3.1,0,6.1,0.1,9.1,0.4c2.3,0.2,4.6,0.5,6.9,0.8c17.8,2.7,33.6,9.9,45.9,20c0.1,0.1,0.2,0.1,0.2,0.2c11.7,9.8,1.8,29.3,1.5,44.8    c-0.4,20,0.2,47.2,0.4,54.9C241,135.8,241.3,137.1,241.8,138.3z"/>
		<path class="st6" d="M202.6,87.2h-33.1c-20.9,0-37.8-13.5-37.8-30.2l0,0c0-16.7,16.9-30.2,37.8-30.2h33.1    c20.9,0,37.8,13.5,37.8,30.2l0,0C240.3,73.7,223.4,87.2,202.6,87.2z"/>
		<path class="st1" d="M131.7,53.5v40c-0.7-0.3-1.4-0.4-2.1-0.4c-5.5,0-10,7.8-10,17.3c0,9.6,4.5,17.3,10,17.3    c0.7,0,1.4-0.1,2.1-0.4v15.7c0,28.7,29.1,52,65,52h18.4c14,0,25.3-9.1,25.3-20.3V53.5H131.7z"/>
		<g>
			<path class="st7" d="M205.2,121.5c-1.7,0-3.1-1.4-3.1-3.1V98.7c0-1.7,1.4-3.1,3.1-3.1s3.1,1.4,3.1,3.1v19.7     C208.4,120.1,207,121.5,205.2,121.5z"/>
			<path d="M205.2,98.1c0.3,0,0.6,0.3,0.6,0.6v19.7c0,0.3-0.3,0.6-0.6,0.6s-0.6-0.3-0.6-0.6V98.7C204.6,98.4,204.9,98.1,205.2,98.1      M205.2,93.1c-3.1,0-5.6,2.5-5.6,5.6v19.7c0,3.1,2.5,5.6,5.6,5.6s5.6-2.5,5.6-5.6V98.7C210.9,95.6,208.3,93.1,205.2,93.1     L205.2,93.1z"/>
		</g>
		<g>
			<path class="st7" d="M183.5,121.5c-1.7,0-3.1-1.4-3.1-3.1V98.7c0-1.7,1.4-3.1,3.1-3.1s3.1,1.4,3.1,3.1v19.7     C186.7,120.1,185.3,121.5,183.5,121.5z"/>
			<path d="M183.5,98.1c0.3,0,0.6,0.3,0.6,0.6v19.7c0,0.3-0.3,0.6-0.6,0.6s-0.6-0.3-0.6-0.6V98.7C182.9,98.4,183.2,98.1,183.5,98.1      M183.5,93.1c-3.1,0-5.6,2.5-5.6,5.6v19.7c0,3.1,2.5,5.6,5.6,5.6s5.6-2.5,5.6-5.6V98.7C189.2,95.6,186.7,93.1,183.5,93.1     L183.5,93.1z"/>
		</g>
		<path class="st8" d="M163.3,85.5l0.3,0.6c0.5,1.3,2.1,2,3.5,1.7l23.7-4.5c1.4-0.3,2.2-1.5,1.7-2.8l-0.3-0.6    c-0.5-1.3-2.1-2-3.5-1.7L165,82.7C163.6,83,162.8,84.2,163.3,85.5z"/>
		<path class="st8" d="M198.6,79.3l-0.3,0.6c-0.6,1.2,0,2.6,1.4,2.9l22.6,5.6c1.4,0.3,3.1-0.4,3.7-1.6l0.3-0.6    c0.6-1.2,0-2.6-1.4-2.9l-22.6-5.6C200.8,77.4,199.2,78.1,198.6,79.3z"/>
		<path class="st9" d="M209.6,158.3h-34.3c-4.8,0-8.6,2.3-8.6-1.5l0,0c0-3.8,3.9-6.9,8.6-6.9h34.3c4.8,0,8.6,3.1,8.6,6.9l0,0    C218.2,160.6,214.4,158.3,209.6,158.3z"/>
		<path class="st10" d="M120.8,89c0,5.8,4.4,10.5,9.9,10.5h5.1c1,0,1.7-0.8,1.7-1.9V74.8c0-1,1-1.8,2-1.5c0.8,0.2,1.6,0.4,2.5,0.6    c3.4,0.8,7,1.2,10.7,1.2c14.2,0,26.9-6,35-15.4v-0.1c0.6-0.7,1.6-0.7,2.2-0.2c7.9,6.4,18.3,10.3,29.7,10.3c4.4,0,8.7-0.6,12.7-1.7    c0.8-0.2,1.6-0.5,2.4-0.7c3.4-1.1,6.6-2.6,9.5-4.3c5.9-3.5,7.7-11.3,3.8-17c-3.8-5.6-8.5-10.7-13.8-15.3    c-11.7-10.1-52-17.7-55.2-16.6c-0.2,0.1-0.4,0.1-0.6,0.1c-1,0-1.9-0.1-2.9-0.1c-26.4,0-50.1,10-66.1,25.7    c-0.4,0.4-0.5,0.9-0.5,1.4"/>
		<path class="st5" d="M111.3,39"/>
	</g>
	<path class="st1" d="M212.1,211.9l-22.3,17.9l-9.3,7.4L150,212.8l-1.1-0.9c0.4,0,0.7-0.1,1.1-0.1c2.4-0.3,4.9-0.4,7.4-0.4h46.3   C206.5,211.4,209.4,211.6,212.1,211.9z"/>
	<path class="st11" d="M219.8,144.9c0,15.5-12.5,28-28,28s-28-12.5-28-28H219.8z"/>
</g>
</svg>