<?xml version="1.0" encoding="UTF-8"?>
<svg xmlns="http://www.w3.org/2000/svg" onmouseup="{ if(window.parent.document.onmouseup) window.parent.document.onmouseup(arguments[0]);}" xml:space="preserve" style="enable-background:new 0 0 1920 1080;" viewBox="0 0 1920 1080" y="0px" x="0px" id="Layer_1" version="1.1" xmlns:xlink="http://www.w3.org/1999/xlink">
<style type="text/css">
	.st0{opacity:0.24;enable-background:new    ;}
	.st1{fill:#CA8116;}
	.st2{fill:#FCB040;}
	.st3{fill:#FFE894;}
	.st4{fill:#FFFFFF;stroke:#000000;stroke-width:6;stroke-miterlimit:10;}
	.st5{fill:#FFFFFF;}
	.st6{fill:none;stroke:#000000;stroke-width:7;stroke-miterlimit:10;}
	.st7{fill:#CCCCCC;}
	.st8{fill:none;}
	.st9{font-family:'OpenSans-Bold';}
	.st10{font-size:86px;}
	.st11{fill:#FF0000;stroke:#000000;stroke-width:6;stroke-miterlimit:10;}
	.st12{opacity:0.7;}
	.st13{fill:#E6E6E6;}
	.st14{fill:#FF0000;}
	.st15{font-size:74.1836px;}
	.st16{fill:none;stroke:#000000;stroke-miterlimit:10;}
</style>
<ellipse class="st0" cx="960" cy="962.5" rx="473" ry="32.5"/>
<g>
	<g>
		<g>
			<path class="st1" d="M830.5,959c-31.1,0-56.3-25.3-56.3-56.3V389.3c0-31.1,25.3-56.3,56.3-56.3h328.3c30.9,0,56.2,25.1,56.3,56     v513.7c0,10.6-2.9,20.8-8.5,29.7c-10.4,16.7-28.3,26.6-47.8,26.6L830.5,959L830.5,959z"/>
			<path d="M1158.8,336c14.2,0,27.6,5.5,37.6,15.5c10.1,10,15.6,23.3,15.7,37.5v513.7c0,10-2.8,19.7-8,28.2     c-9.8,15.8-26.8,25.2-45.3,25.2H830.5c-29.4,0-53.3-23.9-53.3-53.3V389.3c0-29.4,23.9-53.3,53.3-53.3H1158.8 M1158.8,330H830.5     c-32.8,0-59.3,26.6-59.3,59.3v513.3c0,32.8,26.6,59.3,59.3,59.3h328.3c21.3,0,39.9-11.2,50.4-28c5.7-9.1,8.9-19.8,8.9-31.3V389     C1218,356.4,1191.5,330,1158.8,330L1158.8,330z"/>
		</g>
		<g>
			<path class="st2" d="M1212.1,384v513.7c0,11.5-3.3,22.2-9,31.3H865.4c-30.5,0-55.2-24.5-55.2-54.7V384H1212.1z"/>
		</g>
		<rect x="1062.6" y="421" class="st3" width="13.5" height="508"/>
		<rect x="1106.6" y="421" class="st3" width="13.5" height="508"/>
		<path class="st4" d="M1212.1,438v402c-0.2,0-0.4,0-0.7,0H947.8c-18.6,0-33.7-15.1-33.7-33.7V471.7c0-18.6,15.1-33.7,33.7-33.7    h263.7C1211.7,438,1211.9,438,1212.1,438z"/>
		<g>
			<rect x="777.1" y="407" class="st1" width="435" height="14"/>
		</g>
		<g id="XMLID_1_">
			<g>
				<path class="st5" d="M1297.6,252.7v111c0,22-17.4,39.8-38.8,39.8H747.5c-19.2,0-34.8-17.6-34.8-39.2v-111      c0-22,17.4-39.8,38.8-39.8h511.4C1282.1,213.5,1297.6,231.1,1297.6,252.7z"/>
			</g>
			<g>
				<path class="st6" d="M1297.6,252.7v111c0,22-17.4,39.8-38.8,39.8H747.5c-19.2,0-34.8-17.6-34.8-39.2v-111      c0-22,17.4-39.8,38.8-39.8h511.4C1282.1,213.5,1297.6,231.1,1297.6,252.7z"/>
			</g>
		</g>
		<g>
			<path class="st7" d="M1290,366.8c1.2,0,2.2,1,2.2,2.2l0,0c0,17.1-14.1,30.9-31.5,30.9h-513c-17.4,0-31.5-13.9-31.5-30.9V247.9     c0-17.1,14.1-30.9,31.5-30.9h13.4c1.2,0,2.2,1,2.2,2.2v116.6c0,17.1,14.1,30.9,31.5,30.9H1290z"/>
		</g>
		<rect x="940.8" y="455" class="st8" width="107.3" height="84"/>
		<text transform="matrix(1 0 0 1 940.8413 520.3379)" class="st9 st10">Rx</text>
		<rect x="1024.1" y="540.8" class="st7" width="185" height="9.5"/>
		<rect x="1024.1" y="564.8" class="st7" width="185" height="9.5"/>
		<rect x="1076.1" y="588.8" class="st7" width="131" height="9.5"/>
		<g>
			<g>
				<path class="st4" d="M1300.8,923.3c-8.8,22.1-28.9,36.2-51.1,38.4c-9.3,0.9-19-0.3-28.4-3.9c-0.2,0-0.3-0.1-0.5-0.2      c-31.6-12.6-46.9-48.4-34.3-79.9c8.1-20.2,25.7-33.8,45.6-37.6c11.2-2.1,23-1.2,34.3,3.3c0.2,0.1,0.3,0.1,0.5,0.2      C1298.1,856.3,1313.3,891.9,1300.8,923.3z"/>
				<path class="st4" d="M1300.8,923.3c-8.8,22.1-28.9,36.2-51.1,38.4c-9.3,0.9-19-0.3-28.4-3.9l45.6-114.2      C1298.1,856.3,1313.3,891.9,1300.8,923.3z"/>
			</g>
		</g>
		<g>
			<path class="st4" d="M858.3,888.5c-4.8,11.6-13.6,20.5-25.3,24.1l-78.2,23.8l-36.7,11.2l-42.7,13c-5.1,1.6-10.4,2-15.5,1.3     c-18.3-2.3-35.6-17.5-42.3-39.6c-4.3-14.1-3.5-28.4,1.3-40c4.8-11.6,13.6-20.5,25.3-24.1l12.4-3.8l16.7-5.1l50.2-15.3l78.2-23.8     c23.3-7.1,49.3,10,57.9,38.3C863.9,862.7,863.1,876.9,858.3,888.5z"/>
			<path class="st11" d="M833,912.6l-78.2,23.8l-31.2-102.3l78.2-23.8c23.3-7.1,49.3,10,57.9,38.3c4.3,14.1,3.5,28.4-1.3,40     S844.7,909.1,833,912.6z"/>
		</g>
		<g>
			<path class="st4" d="M971.3,949.9c-1.3,10-6.5,18.5-13.9,24.2c-7.4,5.7-17,8.6-27,7.3L795.5,964c-20-2.6-34.1-20.9-31.5-40.9     c1.3-10,6.5-18.5,13.9-24.2c7.4-5.7,17-8.6,27-7.3L939.8,909C959.8,911.6,973.9,929.9,971.3,949.9z"/>
			<path class="st11" d="M971.3,949.9c-1.3,10-6.5,18.5-13.9,24.2c-7.4,5.7-17,8.6-27,7.3l-66.9-8.7l9.4-72.4l66.9,8.7     C959.8,911.6,973.9,929.9,971.3,949.9z"/>
		</g>
		<g class="st12">
			<g>
				<path class="st13" d="M1165.1,877.2c1.6-0.9,3.3-1.6,5-2.3c-1.5,1.2-2.8,2.5-4.1,3.9L1165.1,877.2z"/>
				<path class="st13" d="M1224.5,969.5c-2.8,2.4-5.9,4.5-9.2,6.3l-1.7-3.3C1217.3,971.9,1221,970.9,1224.5,969.5z"/>
				<path class="st13" d="M1165.1,877.2c1.6-0.9,3.3-1.6,5-2.3c-1.5,1.2-2.8,2.5-4.1,3.9L1165.1,877.2z"/>
				<path class="st13" d="M1224.5,969.5c-2.8,2.4-5.9,4.5-9.2,6.3l-1.7-3.3C1217.3,971.9,1221,970.9,1224.5,969.5z"/>
			</g>
		</g>
		<g>
			<g>
				<path class="st4" d="M1236.2,900.1c11,21.1,8.6,45.6-4.2,63.8c-5.4,7.7-12.6,14.3-21.5,19c-0.2,0.1-0.3,0.2-0.4,0.2      c-30.1,15.7-67.3,4-83-26.1c-10.1-19.3-8.9-41.5,1.2-59.1c5.7-9.8,14.1-18.2,24.9-23.9c0.2-0.1,0.3-0.2,0.4-0.2      C1183.7,858.4,1220.6,870.1,1236.2,900.1z"/>
				<path class="st4" d="M1236.2,900.1c11,21.1,8.6,45.6-4.2,63.8c-5.4,7.7-12.6,14.3-21.5,19l-56.8-109.1      C1183.7,858.4,1220.6,870.1,1236.2,900.1z"/>
			</g>
		</g>
	</g>
	<text transform="matrix(1.0161 0 0 1 986.8188 662.5703)" class="st14 st9 st15">The </text>
	<text transform="matrix(1.0161 0 0 1 986.8188 662.5703)" class="st16 st9 st15">The </text>
	<text transform="matrix(1.0161 0 0 1 972.979 732.9199)" class="st14 st9 st15">Pain </text>
	<text transform="matrix(1.0161 0 0 1 972.979 732.9199)" class="st16 st9 st15">Pain </text>
	<text transform="matrix(1.0161 0 0 1 956.1431 803.2705)" class="st14 st9 st15">Game</text>
	<text transform="matrix(1.0161 0 0 1 956.1431 803.2705)" class="st16 st9 st15">Game</text>
</g>
</svg>