<?xml version="1.0" encoding="UTF-8"?>
<svg xmlns="http://www.w3.org/2000/svg" onmouseup="{ if(window.parent.document.onmouseup) window.parent.document.onmouseup(arguments[0]);}" xml:space="preserve" style="enable-background:new 0 0 1920 1080;" viewBox="0 0 1920 1080" y="0px" x="0px" id="Layer_1" version="1.1" xmlns:xlink="http://www.w3.org/1999/xlink">
<style type="text/css">
	.st0{fill:#FFFF00;}
</style>
<g>
	<g>
		<path class="st0" d="M960,940c-93.62,0-181.64-36.46-247.84-102.66c-66.2-66.2-102.66-154.22-102.66-247.84    c0-93.62,36.46-181.64,102.66-247.84S866.38,239,960,239c93.62,0,181.64,36.46,247.84,102.66    c66.2,66.2,102.66,154.22,102.66,247.84s-36.46,181.64-102.66,247.84C1141.64,903.54,1053.62,940,960,940z"/>
		<path d="M960,241c47.05,0,92.69,9.21,135.65,27.39c41.5,17.55,78.77,42.68,110.78,74.69c32.01,32.01,57.14,69.28,74.69,110.78    c18.17,42.96,27.39,88.6,27.39,135.65s-9.21,92.69-27.39,135.65c-17.55,41.5-42.68,78.77-74.69,110.78    c-32.01,32.01-69.28,57.14-110.78,74.69C1052.69,928.79,1007.05,938,960,938s-92.69-9.21-135.65-27.39    c-41.5-17.55-78.77-42.68-110.78-74.69s-57.14-69.28-74.69-110.78c-18.17-42.96-27.39-88.6-27.39-135.65s9.21-92.69,27.39-135.65    c17.55-41.5,42.68-78.77,74.69-110.78s69.28-57.14,110.78-74.69C867.31,250.21,912.95,241,960,241 M960,237    c-194.68,0-352.5,157.82-352.5,352.5S765.32,942,960,942s352.5-157.82,352.5-352.5S1154.68,237,960,237L960,237z"/>
	</g>
	<g>
		<path d="M874,599c-9.1,0-16.5-7.4-16.5-16.5v-174c0-9.1,7.4-16.5,16.5-16.5s16.5,7.4,16.5,16.5v174C890.5,591.6,883.1,599,874,599    z"/>
		<path d="M874,394c8,0,14.5,6.5,14.5,14.5v174c0,8-6.5,14.5-14.5,14.5s-14.5-6.5-14.5-14.5v-174C859.5,400.5,866,394,874,394     M874,390c-10.22,0-18.5,8.28-18.5,18.5v174c0,10.22,8.28,18.5,18.5,18.5s18.5-8.28,18.5-18.5v-174    C892.5,398.28,884.22,390,874,390L874,390z"/>
	</g>
	<g>
		<path d="M1029,599c-9.1,0-16.5-7.4-16.5-16.5v-174c0-9.1,7.4-16.5,16.5-16.5s16.5,7.4,16.5,16.5v174    C1045.5,591.6,1038.1,599,1029,599z"/>
		<path d="M1029,394c8,0,14.5,6.5,14.5,14.5v174c0,8-6.5,14.5-14.5,14.5c-8,0-14.5-6.5-14.5-14.5v-174    C1014.5,400.5,1021,394,1029,394 M1029,390c-10.22,0-18.5,8.28-18.5,18.5v174c0,10.22,8.28,18.5,18.5,18.5s18.5-8.28,18.5-18.5    v-174C1047.5,398.28,1039.22,390,1029,390L1029,390z"/>
	</g>
	<g>
		<path d="M960,805c-99.6,0-180.71-49.31-181.49-110.11C803.31,742.43,876.19,775,960,775c83.81,0,156.69-32.57,181.49-80.11    C1140.71,755.69,1059.6,805,960,805z"/>
		<path d="M1138.86,703.27c-3.52,25.28-21.39,48.87-51.2,67.23C1053.62,791.46,1008.28,803,960,803s-93.62-11.54-127.66-32.5    c-29.81-18.36-47.68-41.95-51.2-67.23c12.44,19.04,33.11,35.99,59.79,48.75C875.11,768.36,916.28,777,960,777    s84.89-8.64,119.07-24.98C1105.74,739.26,1126.42,722.31,1138.86,703.27 M1143.09,686.66C1123.14,736.21,1048.73,773,960,773    s-163.14-36.79-183.09-86.34c-0.28,2.43-0.41,4.87-0.41,7.34c0,62.41,82.16,113,183.5,113s183.5-50.59,183.5-113    C1143.5,691.53,1143.37,689.09,1143.09,686.66L1143.09,686.66z"/>
	</g>
</g>
</svg>